<mxfile host="app.diagrams.net" agent="Mozilla/5.0 (Macintosh; Intel Mac OS X 10_15_7) AppleWebKit/605.1.15 (KHTML, like Gecko) Version/17.6 Safari/605.1.15" version="24.7.7">
  <diagram id="Ht1M8jgEwFfnCIfOTk4-" name="Page-1">
    <mxGraphModel dx="4387" dy="2835" grid="1" gridSize="10" guides="1" tooltips="1" connect="1" arrows="1" fold="1" page="1" pageScale="1" pageWidth="1169" pageHeight="827" math="0" shadow="0">
      <root>
        <mxCell id="0" />
        <mxCell id="1" parent="0" />
        <mxCell id="kFZQHEIWWkuuvYXlo04o-31" value="" style="rounded=1;whiteSpace=wrap;html=1;movable=1;resizable=1;rotatable=1;deletable=1;editable=1;locked=0;connectable=1;" vertex="1" parent="1">
          <mxGeometry x="-1340" y="-1090" width="3510" height="1300" as="geometry" />
        </mxCell>
        <mxCell id="UEzPUAAOIrF-is8g5C7q-175" value="AWS Cloud" style="points=[[0,0],[0.25,0],[0.5,0],[0.75,0],[1,0],[1,0.25],[1,0.5],[1,0.75],[1,1],[0.75,1],[0.5,1],[0.25,1],[0,1],[0,0.75],[0,0.5],[0,0.25]];outlineConnect=0;gradientColor=none;html=1;whiteSpace=wrap;fontSize=12;fontStyle=0;shape=mxgraph.aws4.group;grIcon=mxgraph.aws4.group_aws_cloud_alt;strokeColor=#232F3E;fillColor=none;verticalAlign=top;align=left;spacingLeft=30;fontColor=#232F3E;dashed=0;labelBackgroundColor=#ffffff;container=0;pointerEvents=0;collapsible=0;recursiveResize=0;movable=1;resizable=1;rotatable=1;deletable=1;editable=1;locked=0;connectable=1;" parent="1" vertex="1">
          <mxGeometry x="-160" y="-1040" width="1940" height="1130" as="geometry" />
        </mxCell>
        <mxCell id="kFZQHEIWWkuuvYXlo04o-13" style="edgeStyle=orthogonalEdgeStyle;rounded=0;orthogonalLoop=1;jettySize=auto;html=1;" edge="1" parent="1" source="kFZQHEIWWkuuvYXlo04o-2">
          <mxGeometry relative="1" as="geometry">
            <mxPoint x="200" y="-740" as="targetPoint" />
          </mxGeometry>
        </mxCell>
        <mxCell id="kFZQHEIWWkuuvYXlo04o-2" value="&lt;font style=&quot;font-size: 24px;&quot;&gt;Location 1&lt;/font&gt;&lt;div&gt;&lt;font style=&quot;font-size: 24px;&quot;&gt;&lt;br&gt;&lt;/font&gt;&lt;/div&gt;&lt;div&gt;&lt;font style=&quot;font-size: 24px;&quot;&gt;&lt;br&gt;&lt;/font&gt;&lt;/div&gt;&lt;div&gt;&lt;font style=&quot;font-size: 24px;&quot;&gt;&lt;br&gt;&lt;/font&gt;&lt;/div&gt;&lt;div&gt;&lt;font style=&quot;font-size: 24px;&quot;&gt;&lt;br&gt;&lt;/font&gt;&lt;/div&gt;&lt;div&gt;&lt;font style=&quot;font-size: 24px;&quot;&gt;&amp;nbsp;&lt;/font&gt;&lt;/div&gt;" style="rounded=1;whiteSpace=wrap;html=1;" vertex="1" parent="1">
          <mxGeometry x="-1790" y="-602" width="180" height="230" as="geometry" />
        </mxCell>
        <mxCell id="kFZQHEIWWkuuvYXlo04o-36" value="&lt;font style=&quot;font-size: 24px;&quot;&gt;Location 2&lt;/font&gt;" style="text;html=1;align=center;verticalAlign=middle;whiteSpace=wrap;rounded=0;" vertex="1" parent="1">
          <mxGeometry x="-1250" y="-1120" width="200" height="70" as="geometry" />
        </mxCell>
        <mxCell id="kFZQHEIWWkuuvYXlo04o-117" style="edgeStyle=orthogonalEdgeStyle;rounded=0;orthogonalLoop=1;jettySize=auto;html=1;" edge="1" parent="1" source="kFZQHEIWWkuuvYXlo04o-39" target="kFZQHEIWWkuuvYXlo04o-114">
          <mxGeometry relative="1" as="geometry" />
        </mxCell>
        <mxCell id="kFZQHEIWWkuuvYXlo04o-134" style="edgeStyle=orthogonalEdgeStyle;rounded=0;orthogonalLoop=1;jettySize=auto;html=1;" edge="1" parent="1" source="kFZQHEIWWkuuvYXlo04o-39" target="kFZQHEIWWkuuvYXlo04o-132">
          <mxGeometry relative="1" as="geometry">
            <Array as="points">
              <mxPoint x="1180" y="-687" />
              <mxPoint x="1180" y="-687" />
            </Array>
          </mxGeometry>
        </mxCell>
        <mxCell id="kFZQHEIWWkuuvYXlo04o-39" value="Analytic Layer&lt;div&gt;(Delta)&lt;/div&gt;" style="outlineConnect=0;fontColor=#232F3E;gradientColor=none;fillColor=#277116;strokeColor=none;dashed=0;verticalLabelPosition=bottom;verticalAlign=top;align=center;html=1;fontSize=12;fontStyle=0;aspect=fixed;pointerEvents=1;shape=mxgraph.aws4.bucket;labelBackgroundColor=#ffffff;movable=1;resizable=1;rotatable=1;deletable=1;editable=1;locked=0;connectable=1;" vertex="1" parent="1">
          <mxGeometry x="1020" y="-744" width="132.69" height="138" as="geometry" />
        </mxCell>
        <mxCell id="kFZQHEIWWkuuvYXlo04o-28" style="edgeStyle=orthogonalEdgeStyle;rounded=0;orthogonalLoop=1;jettySize=auto;html=1;movable=1;resizable=1;rotatable=1;deletable=1;editable=1;locked=0;connectable=1;" edge="1" parent="1" source="kFZQHEIWWkuuvYXlo04o-20" target="kFZQHEIWWkuuvYXlo04o-110">
          <mxGeometry relative="1" as="geometry">
            <mxPoint x="913.25" y="-803.5999999999999" as="targetPoint" />
            <Array as="points">
              <mxPoint x="756" y="-830" />
            </Array>
          </mxGeometry>
        </mxCell>
        <mxCell id="kFZQHEIWWkuuvYXlo04o-74" value="ZipFiles" style="outlineConnect=0;fontColor=#232F3E;gradientColor=none;fillColor=#277116;strokeColor=none;dashed=0;verticalLabelPosition=bottom;verticalAlign=top;align=center;html=1;fontSize=12;fontStyle=0;aspect=fixed;pointerEvents=1;shape=mxgraph.aws4.bucket;labelBackgroundColor=#ffffff;movable=1;resizable=1;rotatable=1;deletable=1;editable=1;locked=0;connectable=1;" vertex="1" parent="1">
          <mxGeometry x="-7.5" y="-230" width="125" height="130" as="geometry" />
        </mxCell>
        <mxCell id="kFZQHEIWWkuuvYXlo04o-75" value="ECR" style="outlineConnect=0;dashed=0;verticalLabelPosition=bottom;verticalAlign=top;align=center;html=1;shape=mxgraph.aws3.ecr;fillColor=#F58534;gradientColor=none;" vertex="1" parent="1">
          <mxGeometry x="-7.5" y="-70" width="120" height="120" as="geometry" />
        </mxCell>
        <mxCell id="kFZQHEIWWkuuvYXlo04o-79" value="44036562" style="group" vertex="1" connectable="0" parent="1">
          <mxGeometry x="-650" y="-350" width="440" height="440" as="geometry" />
        </mxCell>
        <UserObject label="" id="kFZQHEIWWkuuvYXlo04o-76">
          <mxCell style="whiteSpace=wrap;html=1;aspect=fixed;" vertex="1" parent="kFZQHEIWWkuuvYXlo04o-79">
            <mxGeometry width="440" height="440" as="geometry" />
          </mxCell>
        </UserObject>
        <mxCell id="kFZQHEIWWkuuvYXlo04o-78" value="" style="shape=image;html=1;verticalAlign=top;verticalLabelPosition=bottom;labelBackgroundColor=#ffffff;imageAspect=0;aspect=fixed;image=https://cdn4.iconfinder.com/data/icons/social-media-and-logos-12/32/Logo_Github-128.png" vertex="1" parent="kFZQHEIWWkuuvYXlo04o-79">
          <mxGeometry width="70" height="70" as="geometry" />
        </mxCell>
        <mxCell id="kFZQHEIWWkuuvYXlo04o-83" value="Github actions" style="shape=image;imageAspect=0;aspect=fixed;verticalLabelPosition=bottom;verticalAlign=top;image=https://avatars.githubusercontent.com/u/44036562?s=200&amp;v=4;fontSize=19;strokeWidth=3;" vertex="1" parent="kFZQHEIWWkuuvYXlo04o-79">
          <mxGeometry x="240" y="130" width="150" height="150" as="geometry" />
        </mxCell>
        <mxCell id="kFZQHEIWWkuuvYXlo04o-91" style="edgeStyle=orthogonalEdgeStyle;rounded=0;orthogonalLoop=1;jettySize=auto;html=1;" edge="1" parent="kFZQHEIWWkuuvYXlo04o-79" source="kFZQHEIWWkuuvYXlo04o-90" target="kFZQHEIWWkuuvYXlo04o-83">
          <mxGeometry relative="1" as="geometry">
            <Array as="points">
              <mxPoint x="220" y="210" />
              <mxPoint x="220" y="210" />
            </Array>
          </mxGeometry>
        </mxCell>
        <mxCell id="kFZQHEIWWkuuvYXlo04o-90" value="Git Repository" style="verticalLabelPosition=bottom;html=1;verticalAlign=top;align=center;strokeColor=none;fillColor=#f59b42;shape=mxgraph.azure.git_repository;" vertex="1" parent="kFZQHEIWWkuuvYXlo04o-79">
          <mxGeometry x="40" y="140" width="130" height="140" as="geometry" />
        </mxCell>
        <mxCell id="kFZQHEIWWkuuvYXlo04o-106" value="&lt;font style=&quot;font-size: 24px;&quot;&gt;CI/CD&lt;/font&gt;" style="text;html=1;align=center;verticalAlign=middle;whiteSpace=wrap;rounded=0;" vertex="1" parent="kFZQHEIWWkuuvYXlo04o-79">
          <mxGeometry x="90" y="30" width="60" height="30" as="geometry" />
        </mxCell>
        <mxCell id="kFZQHEIWWkuuvYXlo04o-84" style="edgeStyle=orthogonalEdgeStyle;rounded=0;orthogonalLoop=1;jettySize=auto;html=1;" edge="1" parent="1" source="kFZQHEIWWkuuvYXlo04o-83" target="kFZQHEIWWkuuvYXlo04o-74">
          <mxGeometry relative="1" as="geometry">
            <Array as="points">
              <mxPoint x="-180" y="-155" />
              <mxPoint x="-180" y="-190" />
            </Array>
          </mxGeometry>
        </mxCell>
        <mxCell id="kFZQHEIWWkuuvYXlo04o-85" style="edgeStyle=orthogonalEdgeStyle;rounded=0;orthogonalLoop=1;jettySize=auto;html=1;" edge="1" parent="1">
          <mxGeometry relative="1" as="geometry">
            <mxPoint x="-270" y="-90" as="sourcePoint" />
            <mxPoint x="-10" y="-15" as="targetPoint" />
            <Array as="points">
              <mxPoint x="-190" y="-90" />
              <mxPoint x="-190" y="-15" />
            </Array>
          </mxGeometry>
        </mxCell>
        <mxCell id="kFZQHEIWWkuuvYXlo04o-86" value="" style="whiteSpace=wrap;html=1;aspect=fixed;" vertex="1" parent="1">
          <mxGeometry x="-1180" y="-357.5" width="455" height="455" as="geometry" />
        </mxCell>
        <mxCell id="kFZQHEIWWkuuvYXlo04o-93" style="edgeStyle=orthogonalEdgeStyle;rounded=0;orthogonalLoop=1;jettySize=auto;html=1;" edge="1" parent="1" source="kFZQHEIWWkuuvYXlo04o-87" target="kFZQHEIWWkuuvYXlo04o-90">
          <mxGeometry relative="1" as="geometry" />
        </mxCell>
        <mxCell id="kFZQHEIWWkuuvYXlo04o-87" value="&lt;font style=&quot;font-size: 16px;&quot;&gt;&lt;b&gt;PY&lt;/b&gt;&lt;/font&gt;" style="shape=note;whiteSpace=wrap;html=1;backgroundOutline=1;darkOpacity=0.05;" vertex="1" parent="1">
          <mxGeometry x="-1090" y="-305" width="80" height="100" as="geometry" />
        </mxCell>
        <mxCell id="kFZQHEIWWkuuvYXlo04o-88" value="&lt;font style=&quot;font-size: 16px;&quot;&gt;&lt;b&gt;PY&lt;/b&gt;&lt;/font&gt;" style="shape=note;whiteSpace=wrap;html=1;backgroundOutline=1;darkOpacity=0.05;" vertex="1" parent="1">
          <mxGeometry x="-1090" y="-180" width="80" height="100" as="geometry" />
        </mxCell>
        <mxCell id="kFZQHEIWWkuuvYXlo04o-89" value="&lt;font style=&quot;font-size: 16px;&quot;&gt;&lt;b&gt;PY&lt;/b&gt;&lt;/font&gt;" style="shape=note;whiteSpace=wrap;html=1;backgroundOutline=1;darkOpacity=0.05;" vertex="1" parent="1">
          <mxGeometry x="-1090" y="-40" width="80" height="100" as="geometry" />
        </mxCell>
        <mxCell id="kFZQHEIWWkuuvYXlo04o-92" value="&lt;font style=&quot;font-size: 19px;&quot;&gt;Development&lt;/font&gt;" style="text;html=1;align=center;verticalAlign=middle;whiteSpace=wrap;rounded=0;" vertex="1" parent="1">
          <mxGeometry x="-1160" y="-340" width="120" height="30" as="geometry" />
        </mxCell>
        <mxCell id="kFZQHEIWWkuuvYXlo04o-94" style="edgeStyle=orthogonalEdgeStyle;rounded=0;orthogonalLoop=1;jettySize=auto;html=1;entryX=0;entryY=0.5;entryDx=0;entryDy=0;entryPerimeter=0;" edge="1" parent="1" source="kFZQHEIWWkuuvYXlo04o-88" target="kFZQHEIWWkuuvYXlo04o-90">
          <mxGeometry relative="1" as="geometry" />
        </mxCell>
        <mxCell id="kFZQHEIWWkuuvYXlo04o-95" style="edgeStyle=orthogonalEdgeStyle;rounded=0;orthogonalLoop=1;jettySize=auto;html=1;entryX=0;entryY=0.5;entryDx=0;entryDy=0;entryPerimeter=0;" edge="1" parent="1" source="kFZQHEIWWkuuvYXlo04o-89" target="kFZQHEIWWkuuvYXlo04o-90">
          <mxGeometry relative="1" as="geometry" />
        </mxCell>
        <mxCell id="kFZQHEIWWkuuvYXlo04o-100" value="Power BI" style="image;aspect=fixed;html=1;points=[];align=center;fontSize=12;image=img/lib/azure2/analytics/Power_BI_Embedded.svg;" vertex="1" parent="1">
          <mxGeometry x="1880" y="-300" width="105" height="140" as="geometry" />
        </mxCell>
        <mxCell id="kFZQHEIWWkuuvYXlo04o-101" style="edgeStyle=orthogonalEdgeStyle;rounded=0;orthogonalLoop=1;jettySize=auto;html=1;" edge="1" parent="1" source="kFZQHEIWWkuuvYXlo04o-49" target="kFZQHEIWWkuuvYXlo04o-100">
          <mxGeometry relative="1" as="geometry">
            <Array as="points">
              <mxPoint x="1520" y="-210" />
            </Array>
          </mxGeometry>
        </mxCell>
        <mxCell id="kFZQHEIWWkuuvYXlo04o-102" value="&lt;font style=&quot;font-size: 24px;&quot;&gt;API&lt;/font&gt;" style="image;aspect=fixed;html=1;points=[];align=center;fontSize=12;image=img/lib/azure2/app_services/API_Management_Services.svg;" vertex="1" parent="1">
          <mxGeometry x="-1760" y="-527.5" width="113.75" height="105" as="geometry" />
        </mxCell>
        <mxCell id="kFZQHEIWWkuuvYXlo04o-103" value="&lt;font style=&quot;font-size: 24px;&quot;&gt;Location 3&lt;/font&gt;&lt;div&gt;&lt;font style=&quot;font-size: 24px;&quot;&gt;&lt;br&gt;&lt;/font&gt;&lt;/div&gt;&lt;div&gt;&lt;font style=&quot;font-size: 24px;&quot;&gt;&lt;br&gt;&lt;/font&gt;&lt;/div&gt;&lt;div&gt;&lt;font style=&quot;font-size: 24px;&quot;&gt;&lt;br&gt;&lt;/font&gt;&lt;/div&gt;&lt;div&gt;&lt;font style=&quot;font-size: 24px;&quot;&gt;&lt;br&gt;&lt;/font&gt;&lt;/div&gt;&lt;div&gt;&lt;font style=&quot;font-size: 24px;&quot;&gt;&lt;br&gt;&lt;/font&gt;&lt;/div&gt;&lt;div&gt;&lt;font style=&quot;font-size: 24px;&quot;&gt;&lt;br&gt;&lt;/font&gt;&lt;/div&gt;&lt;div&gt;&lt;font style=&quot;font-size: 24px;&quot;&gt;&lt;br&gt;&lt;/font&gt;&lt;/div&gt;" style="rounded=1;whiteSpace=wrap;html=1;" vertex="1" parent="1">
          <mxGeometry x="2240" y="-662" width="350" height="332" as="geometry" />
        </mxCell>
        <mxCell id="kFZQHEIWWkuuvYXlo04o-104" value="&lt;font style=&quot;font-size: 24px;&quot;&gt;Power BI&lt;/font&gt;" style="image;aspect=fixed;html=1;points=[];align=center;fontSize=12;image=img/lib/azure2/analytics/Power_BI_Embedded.svg;" vertex="1" parent="1">
          <mxGeometry x="2340" y="-562.3299999999999" width="131" height="174.67" as="geometry" />
        </mxCell>
        <mxCell id="kFZQHEIWWkuuvYXlo04o-105" style="edgeStyle=orthogonalEdgeStyle;rounded=0;orthogonalLoop=1;jettySize=auto;html=1;" edge="1" parent="1" source="kFZQHEIWWkuuvYXlo04o-49" target="kFZQHEIWWkuuvYXlo04o-103">
          <mxGeometry relative="1" as="geometry" />
        </mxCell>
        <mxCell id="kFZQHEIWWkuuvYXlo04o-110" value="Glue ETL job" style="sketch=0;points=[[0,0,0],[0.25,0,0],[0.5,0,0],[0.75,0,0],[1,0,0],[0,1,0],[0.25,1,0],[0.5,1,0],[0.75,1,0],[1,1,0],[0,0.25,0],[0,0.5,0],[0,0.75,0],[1,0.25,0],[1,0.5,0],[1,0.75,0]];outlineConnect=0;fontColor=#232F3E;fillColor=#8C4FFF;strokeColor=#ffffff;dashed=0;verticalLabelPosition=bottom;verticalAlign=top;align=center;html=1;fontSize=12;fontStyle=0;aspect=fixed;shape=mxgraph.aws4.resourceIcon;resIcon=mxgraph.aws4.glue;" vertex="1" parent="1">
          <mxGeometry x="910" y="-870" width="86" height="86" as="geometry" />
        </mxCell>
        <mxCell id="kFZQHEIWWkuuvYXlo04o-3" value="AWS Step Functions" style="points=[[0,0],[0.25,0],[0.5,0],[0.75,0],[1,0],[1,0.25],[1,0.5],[1,0.75],[1,1],[0.75,1],[0.5,1],[0.25,1],[0,1],[0,0.75],[0,0.5],[0,0.25]];outlineConnect=0;gradientColor=none;html=1;whiteSpace=wrap;fontSize=12;fontStyle=0;shape=mxgraph.aws4.group;grIcon=mxgraph.aws4.group_aws_cloud_alt;strokeColor=#232F3E;fillColor=none;verticalAlign=top;align=left;spacingLeft=30;fontColor=#232F3E;dashed=0;labelBackgroundColor=#ffffff;container=0;pointerEvents=0;collapsible=0;recursiveResize=0;movable=1;resizable=1;rotatable=1;deletable=1;editable=1;locked=0;connectable=1;" vertex="1" parent="1">
          <mxGeometry x="-90" y="-980" width="1810" height="690" as="geometry" />
        </mxCell>
        <mxCell id="kFZQHEIWWkuuvYXlo04o-44" style="edgeStyle=orthogonalEdgeStyle;rounded=0;orthogonalLoop=1;jettySize=auto;html=1;" edge="1" parent="1" source="kFZQHEIWWkuuvYXlo04o-4" target="kFZQHEIWWkuuvYXlo04o-6">
          <mxGeometry relative="1" as="geometry">
            <Array as="points">
              <mxPoint x="50" y="-930" />
              <mxPoint x="1660" y="-930" />
            </Array>
          </mxGeometry>
        </mxCell>
        <mxCell id="kFZQHEIWWkuuvYXlo04o-4" value="Start" style="html=1;verticalLabelPosition=bottom;align=center;labelBackgroundColor=#ffffff;verticalAlign=top;strokeWidth=2;strokeColor=#0080F0;shadow=0;dashed=0;shape=mxgraph.ios7.icons.location;movable=1;resizable=1;rotatable=1;deletable=1;editable=1;locked=0;connectable=1;" vertex="1" parent="1">
          <mxGeometry x="30" y="-720" width="40" height="51.5" as="geometry" />
        </mxCell>
        <mxCell id="kFZQHEIWWkuuvYXlo04o-19" style="edgeStyle=orthogonalEdgeStyle;rounded=0;orthogonalLoop=1;jettySize=auto;html=1;movable=1;resizable=1;rotatable=1;deletable=1;editable=1;locked=0;connectable=1;" edge="1" parent="1" source="UEzPUAAOIrF-is8g5C7q-177" target="kFZQHEIWWkuuvYXlo04o-109">
          <mxGeometry relative="1" as="geometry">
            <mxPoint x="476.2857142857147" y="-784" as="sourcePoint" />
            <mxPoint x="559.9999999999995" y="-829.962962962963" as="targetPoint" />
            <Array as="points">
              <mxPoint x="476" y="-830" />
            </Array>
          </mxGeometry>
        </mxCell>
        <mxCell id="kFZQHEIWWkuuvYXlo04o-115" style="edgeStyle=orthogonalEdgeStyle;rounded=0;orthogonalLoop=1;jettySize=auto;html=1;" edge="1" parent="1" source="UEzPUAAOIrF-is8g5C7q-177" target="kFZQHEIWWkuuvYXlo04o-112">
          <mxGeometry relative="1" as="geometry" />
        </mxCell>
        <mxCell id="UEzPUAAOIrF-is8g5C7q-177" value="Raw layer&lt;div&gt;(raw format)&lt;/div&gt;" style="outlineConnect=0;fontColor=#232F3E;gradientColor=none;fillColor=#277116;strokeColor=none;dashed=0;verticalLabelPosition=bottom;verticalAlign=top;align=center;html=1;fontSize=12;fontStyle=0;aspect=fixed;pointerEvents=1;shape=mxgraph.aws4.bucket;labelBackgroundColor=#ffffff;movable=1;resizable=1;rotatable=1;deletable=1;editable=1;locked=0;connectable=1;" parent="1" vertex="1">
          <mxGeometry x="410" y="-744" width="132.69" height="138" as="geometry" />
        </mxCell>
        <mxCell id="kFZQHEIWWkuuvYXlo04o-6" value="End" style="html=1;verticalLabelPosition=bottom;align=center;labelBackgroundColor=#ffffff;verticalAlign=top;strokeWidth=2;strokeColor=#0080F0;shadow=0;dashed=0;shape=mxgraph.ios7.icons.location;movable=1;resizable=1;rotatable=1;deletable=1;editable=1;locked=0;connectable=1;" vertex="1" parent="1">
          <mxGeometry x="1640" y="-710" width="40" height="51.5" as="geometry" />
        </mxCell>
        <mxCell id="kFZQHEIWWkuuvYXlo04o-15" style="edgeStyle=orthogonalEdgeStyle;rounded=0;orthogonalLoop=1;jettySize=auto;html=1;movable=1;resizable=1;rotatable=1;deletable=1;editable=1;locked=0;connectable=1;" edge="1" parent="1" source="kFZQHEIWWkuuvYXlo04o-10" target="UEzPUAAOIrF-is8g5C7q-177">
          <mxGeometry relative="1" as="geometry">
            <Array as="points">
              <mxPoint x="330" y="-564" />
              <mxPoint x="330" y="-675" />
            </Array>
          </mxGeometry>
        </mxCell>
        <mxCell id="kFZQHEIWWkuuvYXlo04o-10" value="X16 &amp;nbsp;Lamda function" style="outlineConnect=0;dashed=0;verticalLabelPosition=bottom;verticalAlign=top;align=center;html=1;shape=mxgraph.aws3.lambda_function;fillColor=#F58534;gradientColor=none;movable=1;resizable=1;rotatable=1;deletable=1;editable=1;locked=0;connectable=1;" vertex="1" parent="1">
          <mxGeometry x="140" y="-624.25" width="120" height="120.25" as="geometry" />
        </mxCell>
        <mxCell id="kFZQHEIWWkuuvYXlo04o-14" style="edgeStyle=orthogonalEdgeStyle;rounded=0;orthogonalLoop=1;jettySize=auto;html=1;movable=1;resizable=1;rotatable=1;deletable=1;editable=1;locked=0;connectable=1;exitX=1;exitY=0.5;exitDx=0;exitDy=0;exitPerimeter=0;" edge="1" parent="1" source="kFZQHEIWWkuuvYXlo04o-130" target="UEzPUAAOIrF-is8g5C7q-177">
          <mxGeometry relative="1" as="geometry">
            <mxPoint x="253" y="-799.9999999999998" as="sourcePoint" />
          </mxGeometry>
        </mxCell>
        <mxCell id="kFZQHEIWWkuuvYXlo04o-16" value="" style="edgeStyle=orthogonalEdgeStyle;rounded=0;orthogonalLoop=1;jettySize=auto;html=1;movable=1;resizable=1;rotatable=1;deletable=1;editable=1;locked=0;connectable=1;" edge="1" parent="1" target="kFZQHEIWWkuuvYXlo04o-10">
          <mxGeometry relative="1" as="geometry">
            <mxPoint x="200" y="-740" as="sourcePoint" />
          </mxGeometry>
        </mxCell>
        <mxCell id="kFZQHEIWWkuuvYXlo04o-21" style="edgeStyle=orthogonalEdgeStyle;rounded=0;orthogonalLoop=1;jettySize=auto;html=1;movable=1;resizable=1;rotatable=1;deletable=1;editable=1;locked=0;connectable=1;" edge="1" parent="1" target="kFZQHEIWWkuuvYXlo04o-20">
          <mxGeometry relative="1" as="geometry">
            <mxPoint x="666" y="-829.962962962963" as="sourcePoint" />
          </mxGeometry>
        </mxCell>
        <mxCell id="kFZQHEIWWkuuvYXlo04o-116" style="edgeStyle=orthogonalEdgeStyle;rounded=0;orthogonalLoop=1;jettySize=auto;html=1;" edge="1" parent="1" source="kFZQHEIWWkuuvYXlo04o-20" target="kFZQHEIWWkuuvYXlo04o-113">
          <mxGeometry relative="1" as="geometry" />
        </mxCell>
        <mxCell id="kFZQHEIWWkuuvYXlo04o-20" value="Master layer&lt;div&gt;(Delta)&lt;/div&gt;" style="outlineConnect=0;fontColor=#232F3E;gradientColor=none;fillColor=#277116;strokeColor=none;dashed=0;verticalLabelPosition=bottom;verticalAlign=top;align=center;html=1;fontSize=12;fontStyle=0;aspect=fixed;pointerEvents=1;shape=mxgraph.aws4.bucket;labelBackgroundColor=#ffffff;movable=1;resizable=1;rotatable=1;deletable=1;editable=1;locked=0;connectable=1;" vertex="1" parent="1">
          <mxGeometry x="690" y="-744" width="132.69" height="138" as="geometry" />
        </mxCell>
        <mxCell id="kFZQHEIWWkuuvYXlo04o-29" style="edgeStyle=orthogonalEdgeStyle;rounded=0;orthogonalLoop=1;jettySize=auto;html=1;movable=1;resizable=1;rotatable=1;deletable=1;editable=1;locked=0;connectable=1;" edge="1" parent="1">
          <mxGeometry relative="1" as="geometry">
            <mxPoint x="996" y="-829.9999999999998" as="sourcePoint" />
            <mxPoint x="1080" y="-740" as="targetPoint" />
            <Array as="points">
              <mxPoint x="1080" y="-830" />
              <mxPoint x="1080" y="-740" />
            </Array>
          </mxGeometry>
        </mxCell>
        <mxCell id="kFZQHEIWWkuuvYXlo04o-51" style="edgeStyle=orthogonalEdgeStyle;rounded=0;orthogonalLoop=1;jettySize=auto;html=1;" edge="1" parent="1" source="kFZQHEIWWkuuvYXlo04o-49" target="kFZQHEIWWkuuvYXlo04o-6">
          <mxGeometry relative="1" as="geometry">
            <Array as="points">
              <mxPoint x="1630" y="-687" />
              <mxPoint x="1630" y="-687" />
            </Array>
          </mxGeometry>
        </mxCell>
        <mxCell id="kFZQHEIWWkuuvYXlo04o-49" value="Redshift" style="outlineConnect=0;dashed=0;verticalLabelPosition=bottom;verticalAlign=top;align=center;html=1;shape=mxgraph.aws3.redshift;fillColor=#2E73B8;gradientColor=none;" vertex="1" parent="1">
          <mxGeometry x="1460" y="-752" width="120" height="130" as="geometry" />
        </mxCell>
        <mxCell id="kFZQHEIWWkuuvYXlo04o-69" value="CI/CD" style="points=[[0,0],[0.25,0],[0.5,0],[0.75,0],[1,0],[1,0.25],[1,0.5],[1,0.75],[1,1],[0.75,1],[0.5,1],[0.25,1],[0,1],[0,0.75],[0,0.5],[0,0.25]];outlineConnect=0;gradientColor=none;html=1;whiteSpace=wrap;fontSize=12;fontStyle=0;shape=mxgraph.aws4.group;grIcon=mxgraph.aws4.group_aws_cloud_alt;strokeColor=#232F3E;fillColor=none;verticalAlign=top;align=left;spacingLeft=30;fontColor=#232F3E;dashed=0;labelBackgroundColor=#ffffff;container=0;pointerEvents=0;collapsible=0;recursiveResize=0;movable=1;resizable=1;rotatable=1;deletable=1;editable=1;locked=0;connectable=1;" vertex="1" parent="1">
          <mxGeometry x="-90" y="-260" width="300" height="320" as="geometry" />
        </mxCell>
        <mxCell id="kFZQHEIWWkuuvYXlo04o-109" value="Glue ETL job" style="sketch=0;points=[[0,0,0],[0.25,0,0],[0.5,0,0],[0.75,0,0],[1,0,0],[0,1,0],[0.25,1,0],[0.5,1,0],[0.75,1,0],[1,1,0],[0,0.25,0],[0,0.5,0],[0,0.75,0],[1,0.25,0],[1,0.5,0],[1,0.75,0]];outlineConnect=0;fontColor=#232F3E;fillColor=#8C4FFF;strokeColor=#ffffff;dashed=0;verticalLabelPosition=bottom;verticalAlign=top;align=center;html=1;fontSize=12;fontStyle=0;aspect=fixed;shape=mxgraph.aws4.resourceIcon;resIcon=mxgraph.aws4.glue;" vertex="1" parent="1">
          <mxGeometry x="570" y="-870" width="86" height="86" as="geometry" />
        </mxCell>
        <mxCell id="kFZQHEIWWkuuvYXlo04o-119" style="edgeStyle=orthogonalEdgeStyle;rounded=0;orthogonalLoop=1;jettySize=auto;html=1;" edge="1" parent="1" source="kFZQHEIWWkuuvYXlo04o-112" target="kFZQHEIWWkuuvYXlo04o-118">
          <mxGeometry relative="1" as="geometry">
            <Array as="points">
              <mxPoint x="476" y="-396" />
            </Array>
          </mxGeometry>
        </mxCell>
        <mxCell id="kFZQHEIWWkuuvYXlo04o-112" value="Glue Crawler" style="sketch=0;outlineConnect=0;fontColor=#232F3E;gradientColor=none;fillColor=#8C4FFF;strokeColor=none;dashed=0;verticalLabelPosition=bottom;verticalAlign=top;align=center;html=1;fontSize=12;fontStyle=0;aspect=fixed;pointerEvents=1;shape=mxgraph.aws4.glue_crawlers;" vertex="1" parent="1">
          <mxGeometry x="451.35" y="-540" width="50" height="50" as="geometry" />
        </mxCell>
        <mxCell id="kFZQHEIWWkuuvYXlo04o-120" style="edgeStyle=orthogonalEdgeStyle;rounded=0;orthogonalLoop=1;jettySize=auto;html=1;" edge="1" parent="1" source="kFZQHEIWWkuuvYXlo04o-113" target="kFZQHEIWWkuuvYXlo04o-118">
          <mxGeometry relative="1" as="geometry" />
        </mxCell>
        <mxCell id="kFZQHEIWWkuuvYXlo04o-113" value="Glue Crawler" style="sketch=0;outlineConnect=0;fontColor=#232F3E;gradientColor=none;fillColor=#8C4FFF;strokeColor=none;dashed=0;verticalLabelPosition=bottom;verticalAlign=top;align=center;html=1;fontSize=12;fontStyle=0;aspect=fixed;pointerEvents=1;shape=mxgraph.aws4.glue_crawlers;" vertex="1" parent="1">
          <mxGeometry x="731.34" y="-550" width="50" height="50" as="geometry" />
        </mxCell>
        <mxCell id="kFZQHEIWWkuuvYXlo04o-127" style="edgeStyle=orthogonalEdgeStyle;rounded=0;orthogonalLoop=1;jettySize=auto;html=1;" edge="1" parent="1" source="kFZQHEIWWkuuvYXlo04o-114" target="kFZQHEIWWkuuvYXlo04o-118">
          <mxGeometry relative="1" as="geometry">
            <Array as="points">
              <mxPoint x="1086" y="-396" />
            </Array>
          </mxGeometry>
        </mxCell>
        <mxCell id="kFZQHEIWWkuuvYXlo04o-114" value="Glue Crawler" style="sketch=0;outlineConnect=0;fontColor=#232F3E;gradientColor=none;fillColor=#8C4FFF;strokeColor=none;dashed=0;verticalLabelPosition=bottom;verticalAlign=top;align=center;html=1;fontSize=12;fontStyle=0;aspect=fixed;pointerEvents=1;shape=mxgraph.aws4.glue_crawlers;" vertex="1" parent="1">
          <mxGeometry x="1061.35" y="-554" width="50" height="50" as="geometry" />
        </mxCell>
        <mxCell id="kFZQHEIWWkuuvYXlo04o-129" style="edgeStyle=orthogonalEdgeStyle;rounded=0;orthogonalLoop=1;jettySize=auto;html=1;" edge="1" parent="1" source="kFZQHEIWWkuuvYXlo04o-118" target="kFZQHEIWWkuuvYXlo04o-128">
          <mxGeometry relative="1" as="geometry">
            <Array as="points">
              <mxPoint x="756" y="-110" />
            </Array>
          </mxGeometry>
        </mxCell>
        <mxCell id="kFZQHEIWWkuuvYXlo04o-118" value="Glue data Catalog" style="sketch=0;outlineConnect=0;fontColor=#232F3E;gradientColor=none;fillColor=#8C4FFF;strokeColor=none;dashed=0;verticalLabelPosition=bottom;verticalAlign=top;align=center;html=1;fontSize=12;fontStyle=0;aspect=fixed;pointerEvents=1;shape=mxgraph.aws4.glue_data_catalog;" vertex="1" parent="1">
          <mxGeometry x="720.35" y="-435.5" width="72" height="78" as="geometry" />
        </mxCell>
        <mxCell id="kFZQHEIWWkuuvYXlo04o-128" value="Athena" style="sketch=0;points=[[0,0,0],[0.25,0,0],[0.5,0,0],[0.75,0,0],[1,0,0],[0,1,0],[0.25,1,0],[0.5,1,0],[0.75,1,0],[1,1,0],[0,0.25,0],[0,0.5,0],[0,0.75,0],[1,0.25,0],[1,0.5,0],[1,0.75,0]];outlineConnect=0;fontColor=#232F3E;fillColor=#8C4FFF;strokeColor=#ffffff;dashed=0;verticalLabelPosition=bottom;verticalAlign=top;align=center;html=1;fontSize=12;fontStyle=0;aspect=fixed;shape=mxgraph.aws4.resourceIcon;resIcon=mxgraph.aws4.athena;" vertex="1" parent="1">
          <mxGeometry x="1620" y="-160" width="110" height="110" as="geometry" />
        </mxCell>
        <mxCell id="kFZQHEIWWkuuvYXlo04o-130" value="&lt;font style=&quot;font-size: 15px;&quot;&gt;&lt;b&gt;AWS Batch&lt;/b&gt;&lt;/font&gt;" style="sketch=0;points=[[0,0,0],[0.25,0,0],[0.5,0,0],[0.75,0,0],[1,0,0],[0,1,0],[0.25,1,0],[0.5,1,0],[0.75,1,0],[1,1,0],[0,0.25,0],[0,0.5,0],[0,0.75,0],[1,0.25,0],[1,0.5,0],[1,0.75,0]];outlineConnect=0;fontColor=#232F3E;fillColor=#ED7100;strokeColor=#ffffff;dashed=0;verticalLabelPosition=bottom;verticalAlign=top;align=center;html=1;fontSize=12;fontStyle=0;aspect=fixed;shape=mxgraph.aws4.resourceIcon;resIcon=mxgraph.aws4.batch;" vertex="1" parent="1">
          <mxGeometry x="161" y="-840" width="78" height="78" as="geometry" />
        </mxCell>
        <mxCell id="kFZQHEIWWkuuvYXlo04o-133" style="edgeStyle=orthogonalEdgeStyle;rounded=0;orthogonalLoop=1;jettySize=auto;html=1;" edge="1" parent="1" source="kFZQHEIWWkuuvYXlo04o-132" target="kFZQHEIWWkuuvYXlo04o-49">
          <mxGeometry relative="1" as="geometry" />
        </mxCell>
        <mxCell id="kFZQHEIWWkuuvYXlo04o-132" value="Glue ETL job" style="sketch=0;points=[[0,0,0],[0.25,0,0],[0.5,0,0],[0.75,0,0],[1,0,0],[0,1,0],[0.25,1,0],[0.5,1,0],[0.75,1,0],[1,1,0],[0,0.25,0],[0,0.5,0],[0,0.75,0],[1,0.25,0],[1,0.5,0],[1,0.75,0]];outlineConnect=0;fontColor=#232F3E;fillColor=#8C4FFF;strokeColor=#ffffff;dashed=0;verticalLabelPosition=bottom;verticalAlign=top;align=center;html=1;fontSize=12;fontStyle=0;aspect=fixed;shape=mxgraph.aws4.resourceIcon;resIcon=mxgraph.aws4.glue;" vertex="1" parent="1">
          <mxGeometry x="1270" y="-732" width="90" height="90" as="geometry" />
        </mxCell>
      </root>
    </mxGraphModel>
  </diagram>
</mxfile>
